<svg width="99" height="91" viewBox="0 0 99 91" fill="none" xmlns="http://www.w3.org/2000/svg">
<path d="M49.35 0C22.09 0 0 17.46 0 39.01C0 53.03 9.36 65.33 23.41 72.2C22.38 76.05 19.67 86.16 19.13 88.32C18.46 91 20.11 90.97 21.19 90.25C22.04 89.68 34.71 81.06 40.18 77.35C43.15 77.79 46.21 78.02 49.34 78.02C76.59 78.02 98.69 60.56 98.69 39.01C98.69 17.46 76.6 0 49.35 0Z" fill="#371D1E"/>
<path d="M14.92 31.83H20C20 31.83 20.03 45.78 20 49.03C20 51.4 25.28 51.43 25.28 49.06L25.3 32.01C25.3 32.01 27 32.02 30.35 32.02C33.51 32.02 33.51 27.05 30.35 27.05C26.79 27.05 14.9 26.95 14.9 26.95C11.92 26.95 11.93 31.82 14.9 31.82" fill="#FAE100"/>
<mask id="mask0_160_397" style="mask-type:luminance" maskUnits="userSpaceOnUse" x="12" y="26" width="21" height="25">
<path d="M14.92 31.83H20C20 31.83 20.03 45.78 20 49.03C20 51.4 25.28 51.43 25.28 49.06L25.3 32.01C25.3 32.01 27 32.02 30.35 32.02C33.51 32.02 33.51 27.05 30.35 27.05C26.79 27.05 14.9 26.95 14.9 26.95C11.92 26.95 11.93 31.82 14.9 31.82" fill="white"/>
</mask>
<g mask="url(#mask0_160_397)">
<path d="M33.52 26.96H11.93V51.44H33.52V26.96Z" fill="#FAE100"/>
</g>
<path d="M39.23 32.73L42.06 41.59H36.17L39.23 32.73ZM36.06 28.58C34.81 31.33 30.3 44.33 28.8 47.78C27.72 50.27 32.39 52.3 33.47 49.81L34.49 46.26H43.78C43.78 46.26 43.46 46.41 44.69 49.66C45.69 52.3 50.52 50.47 49.51 47.83C48.08 44.06 43.15 30.5 42.25 28.58C41.84 27.69 40.35 27.06 38.91 27.06C37.72 27.06 36.55 27.5 36.06 28.58Z" fill="#FAE100"/>
<mask id="mask1_160_397" style="mask-type:luminance" maskUnits="userSpaceOnUse" x="28" y="27" width="22" height="24">
<path d="M39.23 32.73L42.06 41.59H36.17L39.23 32.73ZM36.06 28.58C34.81 31.33 30.3 44.33 28.8 47.78C27.72 50.27 32.39 52.3 33.47 49.81L34.49 46.26H43.78C43.78 46.26 43.46 46.41 44.69 49.66C45.69 52.3 50.52 50.47 49.51 47.83C48.08 44.06 43.15 30.5 42.25 28.58C41.84 27.69 40.35 27.06 38.91 27.06C37.72 27.06 36.55 27.5 36.06 28.58Z" fill="white"/>
</mask>
<g mask="url(#mask1_160_397)">
<path d="M50.53 27.06H27.72V52.31H50.53V27.06Z" fill="#FAE100"/>
</g>
<path d="M51.3 29.4C51.3 33.82 51.33 48.06 51.33 48.06C51.33 48.06 50.92 50.89 53.35 50.89C55.78 50.89 61.16 50.86 63.55 50.86C65.94 50.86 65.92 45.78 63.54 45.78C61.16 45.78 56.8 45.75 56.8 45.75C56.8 45.75 56.82 32.58 56.81 29.38C56.81 27.83 55.43 27.06 54.06 27.06C52.69 27.06 51.31 27.84 51.31 29.39" fill="#FAE100"/>
<mask id="mask2_160_397" style="mask-type:luminance" maskUnits="userSpaceOnUse" x="51" y="27" width="15" height="24">
<path d="M51.3 29.4C51.3 33.82 51.33 48.06 51.33 48.06C51.33 48.06 50.92 50.89 53.35 50.89C55.78 50.89 61.16 50.86 63.55 50.86C65.94 50.86 65.92 45.78 63.54 45.78C61.16 45.78 56.8 45.75 56.8 45.75C56.8 45.75 56.82 32.58 56.81 29.38C56.81 27.83 55.43 27.06 54.06 27.06C52.69 27.06 51.31 27.84 51.31 29.39" fill="white"/>
</mask>
<g mask="url(#mask2_160_397)">
<path d="M65.93 27.06H50.92V50.88H65.93V27.06Z" fill="#FAE100"/>
</g>
<path d="M66.57 28.69C66.62 30.63 66.51 48.14 66.51 49.44C66.51 51.49 71.73 51.48 71.72 49.44C71.72 47.06 71.72 42.55 71.72 42.55L73.25 41.32L79.95 50.46C81.3 52.25 85.56 49.02 84.21 47.23L77.1 37.86C77.1 37.86 81.93 32.64 83.83 30.75C84.94 29.65 81.5 26.18 80.39 27.29C79.31 28.36 71.75 35.93 71.75 35.93C71.75 35.93 71.82 31.18 71.75 28.55C71.72 27.55 70.5 27.07 69.25 27.07C67.91 27.07 66.54 27.62 66.57 28.69Z" fill="#FAE100"/>
<mask id="mask3_160_397" style="mask-type:luminance" maskUnits="userSpaceOnUse" x="66" y="27" width="19" height="24">
<path d="M66.57 28.69C66.62 30.63 66.51 48.14 66.51 49.44C66.51 51.49 71.73 51.48 71.72 49.44C71.72 47.06 71.72 42.55 71.72 42.55L73.25 41.32L79.95 50.46C81.3 52.25 85.56 49.02 84.21 47.23L77.1 37.86C77.1 37.86 81.93 32.64 83.83 30.75C84.94 29.65 81.5 26.18 80.39 27.29C79.31 28.36 71.75 35.93 71.75 35.93C71.75 35.93 71.82 31.18 71.75 28.55C71.72 27.55 70.5 27.07 69.25 27.07C67.91 27.07 66.54 27.62 66.57 28.69Z" fill="white"/>
</mask>
<g mask="url(#mask3_160_397)">
<path d="M85.57 26.19H66.51V52.24H85.57V26.19Z" fill="#FAE100"/>
</g>
</svg>
