<svg width="64" height="13" viewBox="0 0 64 13" fill="none" xmlns="http://www.w3.org/2000/svg">
<g clip-path="url(#clip0_56_122)">
<path d="M3.73997 8.9877L0 12.7322V2.55764C0 0.747307 0.655048 0.0719299 2.83264 0.0719299H5.98838C9.12642 0.0719299 11.4324 1.42268 11.4324 4.39594V4.66369C11.4324 7.63695 9.12642 8.9877 5.98838 8.9877H3.73997ZM3.73997 6.25023H5.80692C7.02407 6.25023 7.71452 5.46295 7.71452 4.58377V4.47187C7.71452 3.59268 7.02407 2.80541 5.80692 2.80541H4.26667C3.85062 2.80541 3.73997 2.88533 3.73997 3.26099V6.25023Z" fill="url(#paint0_linear_56_122)"/>
<path d="M20.5057 1.56656C20.5057 0.495546 21.3776 0.00799561 22.3734 0.00799561C23.3693 0.00799561 24.2412 0.495546 24.2412 1.56656V8.37627C24.2412 11.885 21.0102 13 18.3989 13C15.7875 13 12.5566 11.885 12.5566 8.37627V1.56656C12.5566 0.495546 13.4285 0.00799561 14.4243 0.00799561C15.4202 0.00799561 16.2921 0.495546 16.2921 1.56656V8.50016C16.2921 9.67907 17.434 10.2625 18.3989 10.2625C19.3638 10.2625 20.5057 9.67907 20.5057 8.50016V1.56656Z" fill="#2A60FF"/>
<path d="M31.3405 0.0719299C34.4786 0.0719299 37.7848 1.51859 37.7848 5.89056V6.91361C37.7848 11.2856 34.483 12.7322 31.3405 12.7322H28.6362C26.4586 12.7322 25.8036 12.0569 25.8036 10.2465V2.55764C25.8036 0.747307 26.4586 0.0719299 28.6362 0.0719299H31.3405ZM34.0802 5.63879C34.0802 3.80049 32.9383 2.79342 31.2299 2.79342H30.0304C29.6144 2.79342 29.5037 2.87334 29.5037 3.249V9.55518C29.5037 9.93083 29.6144 10.0108 30.0304 10.0108H31.2299C32.9339 10.0108 34.0802 9.00369 34.0802 7.16538V5.63879Z" fill="#2A60FF"/>
<path d="M44.6761 0.0719299C47.8141 0.0719299 51.1203 1.51859 51.1203 5.89056V6.91361C51.1203 11.2856 47.8185 12.7322 44.6761 12.7322H41.9718C39.7942 12.7322 39.1391 12.0569 39.1391 10.2465V2.55764C39.1391 0.747307 39.7942 0.0719299 41.9718 0.0719299H44.6761ZM47.4158 5.63879C47.4158 3.80049 46.2739 2.79342 44.5654 2.79342H43.366C42.9499 2.79342 42.8393 2.87334 42.8393 3.249V9.55518C42.8393 9.93083 42.9499 10.0108 43.366 10.0108H44.5654C46.2694 10.0108 47.4158 9.00369 47.4158 7.16538V5.63879Z" fill="#2A60FF"/>
<path d="M59.5563 8.09253L55.8561 12.7323V7.99662L51.7355 2.38181C51.0097 1.40671 51.6426 0.447591 52.4614 0.147868C53.6033 -0.259756 54.6567 0.195824 55.294 1.091L57.8346 4.73963L60.2866 1.091C60.8133 0.319709 61.6277 -0.231782 62.8448 0.099912C63.7344 0.335694 64.4426 1.31079 63.6813 2.38181L59.5607 8.09253H59.5563Z" fill="url(#paint1_linear_56_122)"/>
</g>
<defs>
<linearGradient id="paint0_linear_56_122" x1="11.8307" y1="15.7495" x2="0.285629" y2="-2.64565" gradientUnits="userSpaceOnUse">
<stop stop-color="#2A09FF"/>
<stop offset="0.66" stop-color="#2C76FF"/>
<stop offset="1" stop-color="#2D9DFF"/>
</linearGradient>
<linearGradient id="paint1_linear_56_122" x1="60.322" y1="10.9299" x2="56.933" y2="-4.09144" gradientUnits="userSpaceOnUse">
<stop stop-color="#2A2FFF"/>
<stop offset="0.66" stop-color="#2C76FF"/>
<stop offset="1" stop-color="#2D9DFF"/>
</linearGradient>
<clipPath id="clip0_56_122">
<rect width="64" height="13" fill="white"/>
</clipPath>
</defs>
</svg>
